<svg width="800" height="648" viewBox="0 0 800 648" fill="none" xmlns="http://www.w3.org/2000/svg">
<g clip-path="url(#clip0_369_84)">
<path d="M590.3 280.816C590.3 280.816 554.16 309.216 572.23 315.665C590.3 322.114 601.916 292.432 601.916 292.432L590.3 280.816Z" fill="#ED9DA0"/>
<path d="M591.594 270.49L583.85 283.397C583.85 283.397 596.757 283.397 599.338 302.758L609.664 289.851L591.594 270.49Z" fill="#962925"/>
<path d="M763.255 564.772L764.549 603.497L749.06 612.532L742.607 608.66L743.897 564.776L763.255 564.772Z" fill="#ED9DA0"/>
<path d="M671.615 554.447L674.196 595.747L638.056 611.235L640.637 589.293C640.637 589.293 650.963 572.514 648.381 554.444L671.615 554.447Z" fill="#ED9DA0"/>
<path d="M727.116 243.386C727.116 243.386 747.767 297.596 751.639 331.154C755.511 364.712 761.965 453.771 761.965 453.771L774.872 568.644L738.732 573.807L723.244 457.643L688.395 342.77L680.651 457.643L674.198 562.19L640.64 563.481L638.059 455.061L623.859 316.956L631.603 251.13L727.116 243.386Z" fill="#090814"/>
<path d="M746.476 606.075C746.476 606.075 748.593 584.397 764.314 596.527L767.128 594.459L780.035 622.859C780.035 622.859 795.523 644.801 768.419 647.382C741.315 649.963 743.896 622.859 743.896 622.859L741.315 611.243L742.606 603.636L746.476 606.075Z" fill="#090814"/>
<path d="M692.912 60.7511L707.112 93.0191L668.391 148.519C668.391 148.519 665.81 87.8561 658.065 77.5301C650.32 67.2041 692.912 60.7511 692.912 60.7511Z" fill="#ED9DA0"/>
<path d="M671.615 580.26C674.792 582.076 677.425 584.71 679.241 587.888C681.057 591.065 681.989 594.671 681.941 598.33C681.941 611.237 680.65 612.53 680.65 612.53L661.289 617.693C661.289 617.693 648.382 616.402 640.638 624.146C632.894 631.89 594.172 637.051 594.172 626.726C594.172 616.401 626.44 599.626 626.44 599.626C626.44 599.626 636.023 583.443 642.848 585.081C649.673 586.719 652.254 589.3 652.254 590.591C652.254 591.882 648.382 600.917 648.382 600.917C648.382 600.917 670.324 595.746 671.615 580.26Z" fill="#090814"/>
<path d="M669.034 84.629C686.855 84.629 701.302 70.1821 701.302 52.361C701.302 34.5399 686.855 20.093 669.034 20.093C651.213 20.093 636.766 34.5399 636.766 52.361C636.766 70.1821 651.213 84.629 669.034 84.629Z" fill="#ED9DA0"/>
<path d="M674.842 127.864L681.296 111.085L686.458 112.375L692.912 107.212L701.947 78.812L714.854 87.847L731.633 256.93L627.086 259.511L641.286 142.057L654.193 108.499L663.509 96.182L669.681 114.952L674.842 127.864Z" fill="#962925"/>
<path d="M704.528 200.151L708.478 83.396C708.478 83.396 716.145 83.987 718.726 87.859C721.307 91.731 763.901 99.475 763.901 99.475L756.161 219.508C756.161 219.508 788.429 315.02 776.812 320.183C765.195 325.346 744.544 324.055 744.544 324.055L704.528 200.151Z" fill="#090814"/>
<path d="M641.929 185.303L655.621 106.615L625.15 127.221L632.894 184.012L626.44 222.733C626.44 222.733 601.917 329.862 609.661 333.733C617.405 337.604 626.44 333.733 626.44 333.733L641.928 225.314L641.929 185.303Z" fill="#090814"/>
<path d="M634.184 124.641L625.149 127.222L621.277 178.85L614.823 224.025L583.846 279.525C583.846 279.525 599.334 269.199 605.788 298.886L639.903 239.491L634.184 124.641Z" fill="#090814"/>
<path d="M734.859 270.49C734.859 270.49 698.719 298.89 716.789 305.339C734.859 311.788 746.476 282.11 746.476 282.11L734.859 270.49Z" fill="#ED9DA0"/>
<path d="M756.802 284.688L745.186 298.888L729.697 271.788L736.15 260.172L756.802 284.688Z" fill="#962925"/>
<path d="M754.22 103.989L764.546 98.828C764.546 98.828 772.29 109.154 773.581 118.189C774.872 127.224 781.325 138.84 781.325 145.289C781.325 151.738 799.395 212.406 799.395 212.406L758.095 296.306C758.095 296.306 749.06 265.329 729.695 262.748L761.963 217.573L743.893 185.305L754.22 103.989Z" fill="#090814"/>
<path d="M696.049 21.617L702.131 19.1821C702.131 19.1821 689.409 5.17405 671.707 6.39205L676.686 0.911052C676.686 0.911052 664.516 -3.96094 653.453 8.82806C647.637 15.5511 640.908 23.453 636.714 32.355H630.198L632.918 38.3431L623.399 44.3321L633.169 43.2561C632.587 46.5354 632.497 49.8833 632.904 53.1891C633.323 56.496 635.01 59.5107 637.61 61.5971C637.61 61.5971 645.156 45.9771 645.156 43.5411V49.6311C645.156 49.6311 651.241 44.1501 651.241 40.4961L654.56 44.7591L656.219 38.0591L676.686 44.7591L673.367 39.2781L686.09 41.105L681.111 34.4051C681.111 34.4051 695.493 42.323 696.049 49.022C696.605 55.721 700.812 62.0691 700.812 62.0691C700.812 62.0691 712.088 30.752 696.049 21.617Z" fill="#2F2E41"/>
<path d="M73.3642 478.902H26.2562C19.029 478.902 13.1702 484.761 13.1702 491.988V621.17C13.1702 628.397 19.029 634.256 26.2562 634.256H73.3642C80.5914 634.256 86.4502 628.397 86.4502 621.17V491.988C86.4502 484.761 80.5914 478.902 73.3642 478.902Z" fill="#3F3D56"/>
<path d="M554.083 478.902H506.975C499.748 478.902 493.889 484.761 493.889 491.988V621.17C493.889 628.397 499.748 634.256 506.975 634.256H554.083C561.31 634.256 567.169 628.397 567.169 621.17V491.988C567.169 484.761 561.31 478.902 554.083 478.902Z" fill="#3F3D56"/>
<path d="M526.451 596.151H61.0041C53.1668 596.154 45.5773 593.405 39.5601 588.383C33.5429 583.362 29.4802 576.387 28.0811 568.675L10.2811 470.775C6.47847 449.879 8.35775 428.345 15.7226 408.424C23.0874 388.502 35.6674 370.925 52.1481 357.527L87.2481 282.012C91.2652 273.418 97.6456 266.144 105.643 261.042C113.641 255.94 122.926 253.22 132.413 253.199H394.601C401.512 253.206 408.345 254.648 414.67 257.433C420.994 260.218 426.672 264.285 431.343 269.378L495.836 339.843C519.053 355.534 537.732 377.059 549.996 402.254C562.26 427.45 567.678 455.43 565.705 483.382L559.826 565.09C559.191 573.517 555.403 581.395 549.217 587.152C543.031 592.909 534.902 596.122 526.451 596.151Z" fill="#DFDFDF"/>
<path d="M447.015 350.662H95.3651C92.3705 350.662 89.4234 349.915 86.7908 348.488C84.1583 347.06 81.9237 344.999 80.2897 342.489C78.6556 339.98 77.6739 337.102 77.4335 334.117C77.1932 331.132 77.7017 328.135 78.9131 325.396L97.4481 283.49C98.8407 280.359 101.096 277.689 103.951 275.792C106.805 273.896 110.141 272.851 113.567 272.781L413.339 273.146C416.155 273.113 418.94 273.733 421.477 274.956C424.013 276.18 426.231 277.974 427.958 280.199L461.302 321.74C463.341 324.405 464.594 327.587 464.92 330.927C465.246 334.266 464.631 337.631 463.144 340.639C461.658 343.648 459.36 346.18 456.51 347.952C453.66 349.723 450.372 350.661 447.016 350.661L447.015 350.662Z" fill="white"/>
<path d="M499.752 461.316C516.75 461.316 530.53 447.536 530.53 430.538C530.53 413.54 516.75 399.76 499.752 399.76C482.754 399.76 468.974 413.54 468.974 430.538C468.974 447.536 482.754 461.316 499.752 461.316Z" fill="white"/>
<path d="M95.245 461.316C112.243 461.316 126.023 447.536 126.023 430.538C126.023 413.54 112.243 399.76 95.245 399.76C78.2468 399.76 64.467 413.54 64.467 430.538C64.467 447.536 78.2468 461.316 95.245 461.316Z" fill="white"/>
<path d="M469.707 545.588H134.083V544.855C134.092 536.501 137.415 528.491 143.323 522.584C149.23 516.676 157.24 513.353 165.594 513.344H438.194C446.548 513.354 454.558 516.677 460.465 522.584C466.372 528.491 469.695 536.501 469.704 544.855L469.707 545.588Z" fill="#3F3D56"/>
<path d="M57.0821 363.983C55.2156 363.985 53.4006 363.371 51.9181 362.237L39.6301 352.842C38.4013 351.906 36.8999 351.398 35.3551 351.395H8.51813C7.02657 351.396 5.56092 351.005 4.26837 350.261C2.97583 349.517 1.9019 348.445 1.15447 347.154C0.407047 345.864 0.0124304 344.399 0.0102629 342.907C0.00809539 341.416 0.398457 339.95 1.14213 338.657L7.69312 327.244C8.34575 326.113 9.24846 325.147 10.3321 324.419C11.4158 323.691 12.6517 323.221 13.9451 323.044L47.5211 318.569C49.5321 318.292 51.5755 318.748 53.2787 319.852C54.9819 320.956 56.2313 322.636 56.7991 324.585L65.2371 353.069C65.6136 354.338 65.6886 355.677 65.4561 356.98C65.2237 358.283 64.6901 359.514 63.898 360.574C63.1059 361.634 62.0772 362.495 60.8937 363.088C59.7102 363.68 58.4047 363.988 57.0811 363.987L57.0821 363.983Z" fill="#DFDFDF"/>
<path d="M492.481 358.121C491.158 358.122 489.852 357.814 488.669 357.222C487.485 356.629 486.456 355.768 485.664 354.708C484.872 353.648 484.339 352.417 484.106 351.114C483.874 349.811 483.949 348.472 484.325 347.203L492.763 318.724C493.329 316.774 494.578 315.093 496.282 313.989C497.986 312.885 500.03 312.431 502.041 312.71L535.617 317.186C536.91 317.363 538.146 317.833 539.23 318.561C540.313 319.289 541.216 320.256 541.868 321.386L548.42 332.791C549.164 334.084 549.554 335.55 549.552 337.041C549.55 338.533 549.155 339.998 548.408 341.288C547.66 342.579 546.586 343.651 545.294 344.395C544.001 345.139 542.536 345.53 541.044 345.529H514.211C512.666 345.532 511.165 346.04 509.936 346.976L497.648 356.371C496.166 357.505 494.351 358.119 492.484 358.117L492.481 358.121Z" fill="#DFDFDF"/>
</g>
<defs>
<clipPath id="clip0_369_84">
<rect width="799.394" height="647.551" fill="white"/>
</clipPath>
</defs>
</svg>
