<svg width="902" height="624" viewBox="0 0 902 624" fill="none" xmlns="http://www.w3.org/2000/svg">
<g clip-path="url(#clip0_369_114)">
<path d="M425 586C586.819 586 718 454.819 718 293C718 131.181 586.819 0 425 0C263.181 0 132 131.181 132 293C132 454.819 263.181 586 425 586Z" fill="#E6E6E6"/>
<path d="M693.816 93.3723C693.1 95.0198 692.351 96.6497 691.57 98.2612C627.792 100.823 526.938 103.875 458.421 100.865C458.007 100.057 457.601 99.2437 457.203 98.4261C452.899 89.5853 459.947 79.4085 469.719 80.4981L469.948 80.5236C469.948 80.5236 482.754 42.1029 516.906 52.7753C516.906 52.7753 593.747 -67.545 668.454 59.862C668.454 59.862 668.878 59.7855 669.666 59.7157C687.759 58.1139 701.057 76.7142 693.816 93.3723Z" fill="white"/>
<path d="M742.5 275.5H704.5V604.5H742.5V275.5Z" fill="#2F2E43"/>
<path d="M840.497 610.384C838.136 596.901 835.231 583.363 829.415 570.971C823.6 558.58 814.602 547.294 802.482 540.931C783.475 530.953 757.979 535.469 743.556 551.369C729.133 567.269 727.116 593.083 738.894 611.03" fill="#E6E6E6"/>
<path d="M742.75 612.016C740.784 587.242 727.287 563.224 706.09 550.251C684.894 537.278 656.311 536.486 635.35 549.836C614.389 563.186 602.972 590.696 609.996 614.534" fill="#E6E6E6"/>
<path d="M901.088 611.407C896.773 594.937 882.306 581.59 865.543 578.614C857.327 577.155 847.979 578.398 842.261 584.476C835.251 591.929 836.016 603.553 837.229 613.713" fill="#E6E6E6"/>
<path d="M425 380C496.245 380 554 322.245 554 251C554 179.755 496.245 122 425 122C353.755 122 296 179.755 296 251C296 322.245 353.755 380 425 380Z" fill="#FF6363"/>
<path d="M900.913 611.739C900.913 617.262 508.373 624 327.5 624C146.627 624 0 619.523 0 614C0 608.477 146.627 604 327.5 604C508.373 604 900.913 606.216 900.913 611.739Z" fill="#E6E6E6"/>
<path d="M69.479 509.483L78.0001 543L161.683 557.5V493.597L69.479 489.5V509.483Z" fill="#2F2E43"/>
<path d="M582 473H155V573H582V473Z" fill="#2F2E43"/>
<path d="M176 560C176 588.167 165.167 611 128.5 611C96.8333 611 86 588.167 86 560C86 531.833 102.266 509 128.5 509C154.734 509 176 531.833 176 560Z" fill="#2F2E43"/>
<path d="M116 597C127.046 597 136 579.315 136 557.5C136 535.685 127.046 518 116 518C104.954 518 96 535.685 96 557.5C96 579.315 104.954 597 116 597Z" fill="white"/>
<path d="M116 568C123.732 568 130 561.732 130 554C130 546.268 123.732 540 116 540C108.268 540 102 546.268 102 554C102 561.732 108.268 568 116 568Z" fill="#2F2E43"/>
<path d="M576 614C607.48 614 633 585.346 633 550C633 514.654 607.48 486 576 486C544.52 486 519 514.654 519 550C519 585.346 544.52 614 576 614Z" fill="#2F2E43"/>
<path d="M306 604C330.301 604 350 582.51 350 556C350 529.49 330.301 508 306 508C281.699 508 262 529.49 262 556C262 582.51 281.699 604 306 604Z" fill="#2F2E43"/>
<path d="M386 624C417.48 624 443 595.346 443 560C443 524.654 417.48 496 386 496C354.52 496 329 524.654 329 560C329 595.346 354.52 624 386 624Z" fill="#2F2E43"/>
<path d="M375.5 603C395.106 603 411 581.957 411 556C411 530.043 395.106 509 375.5 509C355.894 509 340 530.043 340 556C340 581.957 355.894 603 375.5 603Z" fill="white"/>
<path d="M375 569C385.493 569 394 560.493 394 550C394 539.507 385.493 531 375 531C364.507 531 356 539.507 356 550C356 560.493 364.507 569 375 569Z" fill="#2F2E43"/>
<path d="M48.5 527.828V451.726C48.5 445.045 53.9163 439.629 60.5976 439.629H76.7446C76.7446 439.629 90 360 115 349C140 338 364 288 487 337L528 412C528 412 621 412 631 433C631 433 675 422 679 470L668 526L664 546L447 539L407 534C407 534 401 488 372 488C343 488 331 495 331 495C331 495 309 531 316 567H153.058C153.058 567 146 511 113 510C97.9736 509.545 83 504 78 543L60.0905 540.875C53.4795 540.091 48.5 534.486 48.5 527.828Z" fill="#962925"/>
<path d="M520.348 410.5H324.702C318.255 410.5 312.827 405.88 311.797 399.515L304.431 353.981C303.902 350.709 304.729 347.468 306.76 344.852C308.789 342.24 311.72 340.638 315.016 340.34C421.346 330.746 464.738 337.694 478.459 341.125C486.882 343.232 493.966 349.259 497.407 357.247L520.348 410.5Z" fill="white"/>
<path d="M237.804 419.645C236.234 419.645 234.698 419.613 233.203 419.544C230.686 419.429 228.336 418.242 226.755 416.289C225.184 414.347 224.517 411.819 224.926 409.354L232.853 361.497C233.482 357.701 236.587 354.715 240.404 354.235L278.486 349.442C282.986 348.873 287.137 351.788 288.131 356.22L298.374 401.914C298.887 404.202 298.478 406.553 297.221 408.532C295.968 410.507 294.019 411.875 291.736 412.383C279.114 415.192 256.199 419.645 237.804 419.645Z" fill="white"/>
<path d="M128.067 428.78C125.688 428.78 123.43 427.696 121.943 425.815C120.344 423.793 119.847 421.116 120.615 418.654C126.749 398.986 138.048 365.543 144.797 362.543C151.519 359.556 186.17 356.895 206.227 355.576C208.623 355.421 210.921 356.351 212.53 358.134C214.14 359.919 214.832 362.304 214.429 364.676L205.456 417.42C204.85 420.983 201.909 423.647 198.304 423.899L128.613 428.761C128.43 428.774 128.248 428.78 128.067 428.78Z" fill="white"/>
<path d="M197 550V450.84L211.853 429H306.206L293 455L296.045 550H197Z" stroke="#2F2E43" stroke-miterlimit="10" stroke-linecap="round"/>
<path d="M166.741 550H197" stroke="#2F2E43" stroke-miterlimit="10" stroke-linecap="round"/>
<path d="M102.255 509.483C102.255 509.483 108 442.003 118 438.502L202 432" stroke="#2F2E43" stroke-miterlimit="10" stroke-linecap="round"/>
<path d="M123 462H136.371" stroke="#2F2E43" stroke-miterlimit="10" stroke-linecap="round"/>
<path d="M224 450.114H206.773V458H224V450.114Z" stroke="#2F2E43" stroke-miterlimit="10" stroke-linecap="round"/>
<path d="M306.206 429L482.5 422.5C482.5 422.5 503.902 433.983 508.701 470.741L627.5 475.5C627.5 475.5 638.5 448.5 631 433" stroke="#2F2E43" stroke-miterlimit="10" stroke-linecap="round"/>
<path d="M474 496C486.703 496 497 485.703 497 473C497 460.297 486.703 450 474 450C461.297 450 451 460.297 451 473C451 485.703 461.297 496 474 496Z" fill="#2F2E43"/>
<path d="M474 490C483.389 490 491 482.389 491 473C491 463.611 483.389 456 474 456C464.611 456 457 463.611 457 473C457 482.389 464.611 490 474 490Z" fill="white"/>
<path d="M663.5 499.5C673.441 499.5 681.5 489.65 681.5 477.5C681.5 465.35 673.441 455.5 663.5 455.5C653.559 455.5 645.5 465.35 645.5 477.5C645.5 489.65 653.559 499.5 663.5 499.5Z" fill="#2F2E43"/>
<path d="M662 496C668.627 496 674 487.941 674 478C674 468.059 668.627 460 662 460C655.373 460 650 468.059 650 478C650 487.941 655.373 496 662 496Z" fill="white"/>
<path d="M470.5 516.5C473.814 516.5 476.5 512.694 476.5 508C476.5 503.306 473.814 499.5 470.5 499.5C467.186 499.5 464.5 503.306 464.5 508C464.5 512.694 467.186 516.5 470.5 516.5Z" fill="white"/>
<path d="M660 524C662.761 524 665 520.418 665 516C665 511.582 662.761 508 660 508C657.239 508 655 511.582 655 516C655 520.418 657.239 524 660 524Z" fill="white"/>
<path d="M642 517H497L500 496.567C500 485.761 508.761 477 519.567 477H621.631C632.881 477 642 486.119 642 497.369V517Z" fill="#2F2E43"/>
<path d="M709.955 315.85C709.955 315.85 655.5 308.461 674 241.48H681.5C681.5 241.48 672.5 275.5 707.5 292.5L709.955 315.85Z" fill="#2F2E43"/>
<path d="M739.5 338.5C739.5 338.5 774.5 290.5 774.5 271.5H764.832C764.832 271.5 755.36 300.5 733.93 305L739.5 338.5Z" fill="#2F2E43"/>
<path d="M648.558 267.761C646.676 282.405 631.479 293.202 616.732 292.466C601.986 291.729 588.837 281.192 582.427 267.891C576.018 254.591 575.631 239.015 578.589 224.55C563.752 204.58 555.154 180.043 554.28 155.18C553.801 141.544 555.922 127.052 564.542 116.476C571.453 107.998 582.283 102.855 593.22 102.858C604.158 102.86 614.985 108.008 621.891 116.49L620.017 116.266C618.32 102.581 616.622 88.759 617.999 75.0385C619.376 61.318 624.115 47.5099 633.715 37.6113C643.598 27.4217 657.545 22.3355 671.247 18.6271C691.159 13.238 712.291 10.0895 732.368 14.8258C752.445 19.5621 771.298 33.4776 777.314 53.2091C793.152 52.6344 809.579 54.3988 823.392 62.1682C837.205 69.9376 847.873 84.7053 847.247 100.541C846.621 116.377 832.172 131.411 816.43 129.577C826.651 136.12 836.687 143.361 844.028 153.025C851.37 162.689 855.771 175.173 853.438 187.082C851.105 198.992 840.915 209.632 828.79 210.152L826.134 211.512C840.728 225.15 840.213 250.179 828.292 266.206C816.371 282.233 795.855 290.029 775.913 291.147C755.97 292.266 736.21 287.568 716.789 282.903C694.077 277.448 671.366 271.993 648.655 266.538L648.558 267.761Z" fill="#962925"/>
<path d="M351.885 97.0188C351.55 97.7906 351.199 98.5542 350.833 99.3092C320.953 100.509 273.703 101.939 241.603 100.529C241.409 100.15 241.219 99.7695 241.032 99.3864C239.016 95.2445 242.318 90.4768 246.896 90.9872L247.003 90.9991C247.003 90.9991 253.003 72.9991 269.003 77.9991C269.003 77.9991 305.003 21.6293 340.003 81.3192C340.003 81.3192 340.201 81.2834 340.571 81.2507C349.047 80.5002 355.277 89.2145 351.885 97.0188Z" fill="white"/>
<path d="M324.816 250.372C324.1 252.02 323.351 253.65 322.57 255.261C258.792 257.823 157.938 260.875 89.421 257.865C89.0069 257.057 88.6008 256.244 88.2028 255.426C83.8991 246.585 90.947 236.409 100.719 237.498L100.948 237.524C100.948 237.524 113.754 199.103 147.906 209.775C147.906 209.775 224.747 89.455 299.454 216.862C299.454 216.862 299.878 216.785 300.666 216.716C318.758 215.114 332.057 233.714 324.816 250.372Z" fill="white"/>
</g>
<defs>
<clipPath id="clip0_369_114">
<rect width="901.088" height="624" fill="white"/>
</clipPath>
</defs>
</svg>
